<?xml version="1.0" encoding="UTF-8" standalone="no"?>
<!-- Created with Inkscape (http://www.inkscape.org/) -->

<svg
   version="1.1"
   id="svg1739"
   width="315.25092"
   height="272.76462"
   viewBox="0 0 315.25092 272.76462"
   xmlns="http://www.w3.org/2000/svg"
   xmlns:svg="http://www.w3.org/2000/svg">
  <defs
     id="defs1743" />
  <g
     id="g1747"
     transform="matrix(1.3333333,0,0,1.3333333,0,2.8191156e-6)">
    <g
       id="g1749">
      <path
         d="m 32.926,169.164 c 0,0.398 -0.082,0.738 -0.238,1.016 -0.161,0.281 -0.34,0.55 -0.543,0.808 -0.18,0.242 -0.368,0.492 -0.567,0.75 -0.18,0.262 -0.301,0.571 -0.359,0.93 -0.18,-0.082 -0.371,-0.129 -0.571,-0.148 -0.179,-0.024 -0.371,-0.032 -0.57,-0.032 -0.476,0 -0.957,0.039 -1.437,0.121 -0.457,0.059 -0.918,0.09 -1.379,0.09 -0.539,0 -0.989,-0.16 -1.348,-0.48 -0.34,-0.34 -0.617,-0.75 -0.84,-1.231 -0.199,-0.476 -0.336,-0.988 -0.418,-1.527 -0.078,-0.559 -0.121,-1.059 -0.121,-1.496 0,-0.559 0.09,-1.129 0.27,-1.707 -0.157,-0.063 -0.297,-0.09 -0.418,-0.09 -0.258,0 -0.449,0.078 -0.571,0.238 -0.097,0.16 -0.25,0.239 -0.449,0.239 -0.179,0 -0.34,-0.059 -0.476,-0.18 -0.141,-0.137 -0.313,-0.207 -0.512,-0.207 -0.301,0 -0.68,0.097 -1.137,0.297 -0.441,0.179 -0.871,0.422 -1.289,0.718 -0.418,0.301 -0.789,0.633 -1.109,0.993 -0.301,0.336 -0.449,0.668 -0.449,0.988 -0.418,0.039 -0.821,0.16 -1.2,0.359 -0.359,0.18 -0.707,0.379 -1.047,0.598 -0.261,0.16 -0.48,0.41 -0.66,0.75 -0.179,0.34 -0.347,0.707 -0.508,1.109 -0.14,0.379 -0.289,0.766 -0.449,1.168 -0.14,0.399 -0.312,0.727 -0.511,0.989 -0.34,0.437 -0.637,0.886 -0.899,1.347 -0.238,0.438 -0.359,0.938 -0.359,1.496 0,0.7 0.109,1.41 0.332,2.129 0.218,0.719 0.328,1.449 0.328,2.188 0,0.48 -0.039,0.957 -0.121,1.437 -0.059,0.481 -0.09,0.949 -0.09,1.406 0,0.563 0.101,1.012 0.301,1.352 0.199,0.336 0.468,0.609 0.808,0.809 0.34,0.179 0.731,0.297 1.168,0.359 0.442,0.059 0.891,0.09 1.348,0.09 0.5,0 0.98,-0.012 1.437,-0.031 0.481,-0.039 0.922,-0.059 1.321,-0.059 0.14,0.16 0.218,0.309 0.238,0.449 0.02,0.141 0.012,0.289 -0.027,0.449 -0.024,0.141 -0.063,0.29 -0.121,0.45 -0.039,0.14 -0.059,0.308 -0.059,0.507 0,0.083 0.02,0.18 0.059,0.301 0.3,0 0.558,-0.07 0.777,-0.211 0.223,-0.14 0.379,-0.359 0.48,-0.66 0.141,0.043 0.258,0.102 0.36,0.18 0.121,0.082 0.179,0.203 0.179,0.359 0,0.121 -0.031,0.242 -0.089,0.364 -0.059,0.097 -0.129,0.199 -0.211,0.296 -0.078,0.102 -0.149,0.211 -0.207,0.332 -0.063,0.098 -0.09,0.219 -0.09,0.36 0,0.078 0.008,0.168 0.027,0.269 0.02,0.078 0.051,0.149 0.09,0.207 -0.098,0.16 -0.238,0.27 -0.418,0.332 -0.18,0.059 -0.359,0.09 -0.539,0.09 -0.32,0 -0.59,-0.051 -0.809,-0.152 -0.199,-0.098 -0.39,-0.207 -0.57,-0.328 -0.16,-0.121 -0.309,-0.231 -0.449,-0.328 -0.141,-0.102 -0.309,-0.153 -0.508,-0.153 -0.082,0 -0.199,0.02 -0.359,0.063 -0.16,0.039 -0.321,0.09 -0.481,0.148 -0.16,0.059 -0.301,0.141 -0.418,0.238 -0.121,0.083 -0.179,0.161 -0.179,0.243 0,0.16 0.046,0.297 0.148,0.418 0.121,0.121 0.18,0.257 0.18,0.418 0,0.14 -0.051,0.25 -0.149,0.332 -0.101,0.078 -0.222,0.129 -0.359,0.148 -0.141,0.039 -0.293,0.059 -0.449,0.059 -0.141,0.023 -0.262,0.031 -0.364,0.031 -0.777,0 -1.554,-0.09 -2.336,-0.27 -0.757,-0.16 -1.527,-0.238 -2.304,-0.238 -0.36,0 -0.719,0.078 -1.078,0.238 -0.36,0.161 -0.743,0.239 -1.141,0.239 -0.219,0 -0.391,-0.047 -0.508,-0.149 -0.101,-0.078 -0.191,-0.179 -0.269,-0.301 -0.082,-0.117 -0.172,-0.226 -0.27,-0.328 -0.101,-0.078 -0.25,-0.121 -0.449,-0.121 -0.379,0 -0.762,0.043 -1.141,0.121 -0.359,0.078 -0.726,0.16 -1.109,0.239 -0.36,0.101 -0.727,0.179 -1.106,0.242 -0.359,0.078 -0.73,0.121 -1.109,0.121 -0.199,0 -0.441,-0.031 -0.719,-0.09 -0.281,-0.043 -0.55,-0.121 -0.808,-0.242 -0.262,-0.121 -0.481,-0.27 -0.66,-0.449 C 0.09,190.793 0,190.574 0,190.312 c 0,-0.16 0.09,-0.367 0.27,-0.628 0.199,-0.258 0.418,-0.508 0.66,-0.746 0.238,-0.262 0.476,-0.481 0.718,-0.661 0.239,-0.179 0.418,-0.269 0.54,-0.269 0.32,0 0.628,0.008 0.929,0.027 0.317,0.024 0.649,0.031 0.988,0.031 0.54,0 1.079,-0.078 1.618,-0.238 0.558,-0.18 1.058,-0.43 1.496,-0.75 0.461,-0.32 0.832,-0.719 1.109,-1.199 0.281,-0.477 0.422,-1.016 0.422,-1.617 0,-0.258 -0.023,-0.508 -0.062,-0.75 -0.04,-0.258 -0.059,-0.52 -0.059,-0.778 0,-0.519 0.059,-1.039 0.18,-1.558 0.121,-0.52 0.179,-1.039 0.179,-1.559 0,-0.699 -0.082,-1.406 -0.238,-2.125 -0.141,-0.738 -0.211,-1.48 -0.211,-2.219 0,-0.656 0.008,-1.308 0.027,-1.945 0.043,-0.66 0.063,-1.32 0.063,-1.976 0,-0.301 -0.012,-0.743 -0.031,-1.321 -0.02,-0.578 -0.09,-1.156 -0.211,-1.738 -0.098,-0.578 -0.27,-1.086 -0.508,-1.527 -0.219,-0.438 -0.527,-0.661 -0.93,-0.661 -0.437,0 -0.879,0.051 -1.316,0.153 -0.442,0.097 -0.891,0.148 -1.348,0.148 -0.34,0 -0.738,-0.019 -1.199,-0.058 -0.461,-0.063 -0.898,-0.16 -1.316,-0.301 -0.422,-0.16 -0.782,-0.379 -1.082,-0.66 -0.297,-0.278 -0.45,-0.649 -0.45,-1.11 0,-0.496 0.071,-0.898 0.211,-1.195 0.141,-0.32 0.321,-0.559 0.539,-0.719 0.239,-0.16 0.508,-0.269 0.809,-0.332 0.32,-0.058 0.66,-0.09 1.019,-0.09 0.321,0 0.649,0.012 0.989,0.032 0.34,0.019 0.668,0.031 0.988,0.031 0.641,0 1.269,-0.031 1.887,-0.09 0.64,-0.082 1.281,-0.121 1.918,-0.121 0.441,0 0.879,0.019 1.32,0.059 0.437,0.039 0.867,0.128 1.285,0.269 0.383,0.121 0.66,0.352 0.84,0.691 0.18,0.317 0.34,0.649 0.48,0.989 0.161,0.34 0.34,0.648 0.539,0.929 0.2,0.258 0.52,0.387 0.958,0.387 0.199,0 0.378,-0.051 0.539,-0.148 0.179,-0.121 0.351,-0.25 0.511,-0.391 0.16,-0.14 0.321,-0.269 0.477,-0.39 0.16,-0.118 0.351,-0.2 0.57,-0.239 0.442,-0.058 0.84,-0.199 1.199,-0.418 0.379,-0.219 0.75,-0.441 1.11,-0.66 0.359,-0.219 0.719,-0.418 1.078,-0.598 0.379,-0.179 0.789,-0.269 1.226,-0.269 0.262,0 0.582,-0.031 0.961,-0.09 0.399,-0.062 0.789,-0.141 1.168,-0.242 0.399,-0.117 0.77,-0.258 1.11,-0.418 0.359,-0.16 0.636,-0.34 0.836,-0.539 0.539,0.039 1.172,0.168 1.89,0.39 0.739,0.219 1.438,0.516 2.094,0.899 0.68,0.359 1.27,0.789 1.77,1.285 0.5,0.5 0.789,1.059 0.867,1.68 0.062,0.379 0.172,0.738 0.332,1.078 0.16,0.34 0.32,0.68 0.476,1.019 0.18,0.321 0.34,0.661 0.481,1.02 0.14,0.336 0.211,0.699 0.211,1.078 z"
         style="fill:#000000;fill-opacity:1;fill-rule:nonzero;stroke:none"
         id="path1751" />
      <path
         d="m 64.504,184.77 c 0,0.539 -0.09,1 -0.27,1.378 -0.16,0.379 -0.382,0.719 -0.66,1.02 -0.262,0.301 -0.57,0.578 -0.929,0.84 -0.34,0.258 -0.688,0.539 -1.047,0.836 -0.282,0.242 -0.532,0.422 -0.75,0.539 -0.219,0.121 -0.442,0.222 -0.66,0.301 -0.2,0.082 -0.418,0.16 -0.661,0.242 -0.218,0.078 -0.476,0.187 -0.777,0.328 -0.398,0.199 -0.738,0.391 -1.02,0.57 -0.257,0.16 -0.527,0.309 -0.808,0.449 -0.258,0.141 -0.547,0.25 -0.867,0.329 -0.321,0.101 -0.719,0.179 -1.2,0.238 -0.8,0.101 -1.609,0.222 -2.425,0.363 -0.801,0.137 -1.598,0.207 -2.399,0.207 -0.16,0 -0.328,-0.039 -0.508,-0.117 -0.16,-0.063 -0.351,-0.133 -0.57,-0.211 -0.219,-0.062 -0.469,-0.129 -0.75,-0.211 -0.258,-0.059 -0.578,-0.09 -0.957,-0.09 -0.398,0 -0.719,-0.058 -0.961,-0.179 -0.238,-0.122 -0.457,-0.258 -0.656,-0.418 -0.18,-0.161 -0.371,-0.332 -0.57,-0.512 -0.2,-0.199 -0.461,-0.367 -0.778,-0.508 -1.199,-0.539 -2.219,-1.187 -3.058,-1.949 -0.836,-0.758 -1.555,-1.606 -2.157,-2.543 -0.597,-0.942 -1.097,-1.961 -1.496,-3.059 -0.402,-1.097 -0.742,-2.246 -1.019,-3.445 -0.219,-0.84 -0.328,-1.676 -0.328,-2.516 0,-1.097 0.257,-2.117 0.777,-3.054 -0.199,-0.559 -0.301,-1.102 -0.301,-1.618 0,-0.382 0.11,-0.941 0.332,-1.679 0.219,-0.758 0.496,-1.52 0.836,-2.278 0.36,-0.757 0.742,-1.437 1.141,-2.035 0.418,-0.621 0.808,-1 1.168,-1.14 0.277,-0.098 0.469,-0.18 0.57,-0.239 0.117,-0.082 0.18,-0.281 0.18,-0.601 0,-0.238 0.09,-0.438 0.269,-0.598 0.2,-0.16 0.43,-0.289 0.688,-0.39 0.281,-0.098 0.551,-0.188 0.808,-0.27 0.282,-0.078 0.512,-0.16 0.692,-0.238 0.738,-0.36 1.437,-0.66 2.094,-0.899 0.679,-0.261 1.351,-0.468 2.007,-0.629 0.68,-0.179 1.379,-0.308 2.098,-0.39 0.719,-0.078 1.488,-0.121 2.309,-0.121 0.437,0 0.867,0.062 1.285,0.179 0.422,0.121 0.82,0.282 1.199,0.481 0.402,0.179 0.789,0.39 1.168,0.629 0.383,0.218 0.75,0.441 1.109,0.66 h -0.031 c 0.301,0.039 0.582,0.129 0.84,0.269 0.281,0.121 0.57,0.2 0.871,0.239 0.277,0.34 0.637,0.672 1.078,0.988 0.457,0.301 0.899,0.621 1.317,0.961 0.441,0.34 0.808,0.707 1.109,1.109 0.32,0.379 0.48,0.817 0.48,1.317 0,0.078 -0.011,0.16 -0.031,0.238 0,0.082 -0.012,0.172 -0.031,0.269 l 0.121,-0.148 c 0.078,0.059 0.148,0.16 0.211,0.301 0.078,0.14 0.148,0.297 0.207,0.48 0.062,0.157 0.113,0.328 0.152,0.508 0.039,0.16 0.071,0.289 0.09,0.391 0.16,0.258 0.367,0.468 0.629,0.629 0.277,0.16 0.5,0.379 0.66,0.656 -0.203,0.203 -0.301,0.461 -0.301,0.781 0,0.34 0.071,0.68 0.211,1.02 0.137,0.316 0.207,0.648 0.207,0.988 0,0.398 -0.019,0.789 -0.058,1.168 -0.039,0.359 -0.059,0.738 -0.059,1.137 0,0.3 -0.121,0.531 -0.359,0.691 -0.223,0.16 -0.473,0.297 -0.75,0.418 -0.262,0.121 -0.5,0.238 -0.719,0.359 -0.223,0.121 -0.332,0.289 -0.332,0.508 0,0.16 -0.098,0.242 -0.297,0.242 -0.179,-0.019 -0.332,-0.031 -0.449,-0.031 -0.879,0 -1.758,-0.109 -2.637,-0.328 -0.859,-0.223 -1.719,-0.332 -2.578,-0.332 -0.937,0 -1.867,0.07 -2.785,0.211 -0.918,0.121 -1.848,0.18 -2.785,0.18 -0.699,0 -1.399,-0.02 -2.098,-0.059 -0.68,-0.039 -1.371,-0.062 -2.07,-0.062 -0.18,0 -0.516,0.042 -1.016,0.121 -0.5,0.058 -1.031,0.148 -1.59,0.269 -0.539,0.102 -1.058,0.231 -1.558,0.391 -0.496,0.14 -0.848,0.277 -1.047,0.418 -0.02,0.101 -0.031,0.242 -0.031,0.422 0,0.937 0.269,1.906 0.808,2.906 0.563,0.996 1.289,1.906 2.188,2.723 0.898,0.82 1.91,1.5 3.027,2.039 1.117,0.539 2.246,0.808 3.387,0.808 0.656,0 1.305,0.031 1.945,0.09 0.66,0.039 1.297,0.18 1.918,0.418 0.539,-0.258 1.027,-0.559 1.469,-0.898 0.457,-0.34 0.898,-0.7 1.316,-1.079 0.422,-0.378 0.828,-0.769 1.231,-1.168 0.398,-0.398 0.808,-0.796 1.226,-1.199 0.082,-0.078 0.27,-0.148 0.571,-0.207 0.32,-0.082 0.66,-0.14 1.019,-0.179 0.36,-0.063 0.699,-0.102 1.016,-0.122 0.34,-0.039 0.57,-0.058 0.691,-0.058 0.457,0 0.887,0.07 1.289,0.207 0.117,0.461 0.18,0.91 0.18,1.351 z m -4.496,-12.161 c 0,-0.3 -0.051,-0.589 -0.149,-0.871 -0.101,-0.277 -0.179,-0.57 -0.242,-0.867 -0.097,-0.559 -0.148,-1.101 -0.148,-1.617 0,-0.543 -0.078,-1.082 -0.239,-1.621 h -0.031 c 0,0.121 -0.039,0.242 -0.121,0.359 -0.078,0.102 -0.187,0.153 -0.328,0.153 -0.238,0 -0.469,-0.063 -0.688,-0.18 -0.222,-0.121 -0.41,-0.27 -0.57,-0.449 -0.758,-0.34 -1.449,-0.661 -2.066,-0.961 -0.602,-0.297 -1.211,-0.559 -1.828,-0.778 -0.602,-0.238 -1.25,-0.422 -1.95,-0.539 -0.679,-0.14 -1.464,-0.211 -2.367,-0.211 -0.078,0 -0.156,0.012 -0.238,0.032 -0.059,0 -0.121,0.027 -0.18,0.089 l 0.149,0.329 -0.239,0.058 c -0.539,0.102 -0.988,0.203 -1.347,0.301 -0.34,0.082 -0.649,0.199 -0.93,0.359 -0.277,0.16 -0.558,0.36 -0.84,0.602 -0.258,0.219 -0.597,0.508 -1.015,0.867 -0.2,0.18 -0.422,0.32 -0.661,0.418 -0.218,0.082 -0.449,0.16 -0.687,0.242 -0.223,0.059 -0.441,0.129 -0.66,0.207 -0.199,0.082 -0.371,0.211 -0.512,0.391 -0.137,0.5 -0.348,0.988 -0.629,1.469 -0.258,0.461 -0.387,0.949 -0.387,1.468 0,0.301 0.118,0.571 0.36,0.809 0.258,0.219 0.578,0.41 0.957,0.57 0.398,0.16 0.828,0.297 1.289,0.418 0.48,0.121 0.949,0.211 1.406,0.27 0.461,0.058 0.879,0.109 1.258,0.148 0.402,0.02 0.711,0.031 0.93,0.031 0.761,0 1.507,-0.07 2.246,-0.21 0.742,-0.161 1.488,-0.239 2.25,-0.239 0.777,0 1.558,0.039 2.336,0.121 0.777,0.059 1.558,0.09 2.336,0.09 0.199,0 0.5,-0.012 0.898,-0.031 0.399,-0.02 0.789,-0.07 1.168,-0.148 0.402,-0.102 0.742,-0.231 1.02,-0.391 0.3,-0.18 0.449,-0.41 0.449,-0.688 z"
         style="fill:#000000;fill-opacity:1;fill-rule:nonzero;stroke:none"
         id="path1753" />
      <path
         d="m 96.617,181.863 c 0,0.262 -0.047,0.52 -0.148,0.782 -0.078,0.238 -0.18,0.488 -0.301,0.75 -0.117,0.238 -0.238,0.476 -0.359,0.718 -0.098,0.239 -0.168,0.489 -0.207,0.746 -0.102,0.539 -0.313,1.032 -0.629,1.469 -0.301,0.422 -0.653,0.82 -1.051,1.199 -0.399,0.379 -0.82,0.75 -1.258,1.11 -0.441,0.34 -0.828,0.687 -1.168,1.047 -0.301,0.3 -0.621,0.449 -0.961,0.449 -0.199,0 -0.387,-0.02 -0.566,-0.059 -0.18,-0.039 -0.371,-0.058 -0.571,-0.058 -0.281,0 -0.507,0.046 -0.687,0.148 -0.16,0.102 -0.32,0.211 -0.481,0.328 -0.14,0.102 -0.32,0.199 -0.539,0.301 -0.199,0.102 -0.48,0.148 -0.839,0.148 -0.258,0 -0.508,0.071 -0.75,0.211 -0.239,0.141 -0.477,0.211 -0.719,0.211 -0.34,0 -0.738,-0.101 -1.199,-0.301 -0.438,-0.199 -0.926,-0.3 -1.465,-0.3 -0.34,0 -0.68,0.019 -1.02,0.062 -0.34,0.02 -0.679,0.028 -1.019,0.028 -0.301,0 -0.598,-0.04 -0.899,-0.118 -0.281,-0.101 -0.558,-0.199 -0.84,-0.3 -0.257,-0.122 -0.527,-0.219 -0.808,-0.301 -0.278,-0.098 -0.571,-0.149 -0.867,-0.149 -0.602,0 -1.11,0.149 -1.528,0.45 -0.422,0.3 -0.8,0.628 -1.14,0.988 -0.321,0.379 -0.649,0.719 -0.989,1.019 -0.32,0.301 -0.687,0.45 -1.109,0.45 -0.379,0 -0.637,-0.071 -0.777,-0.211 -0.121,-0.121 -0.2,-0.27 -0.239,-0.45 -0.023,-0.179 -0.043,-0.378 -0.062,-0.597 -0.02,-0.199 -0.11,-0.379 -0.27,-0.539 -0.297,-0.321 -0.5,-0.61 -0.597,-0.871 -0.102,-0.278 -0.153,-0.637 -0.153,-1.078 0,-0.957 0.082,-1.887 0.243,-2.786 0.179,-0.918 0.269,-1.859 0.269,-2.816 0,-0.34 -0.039,-0.668 -0.121,-0.988 -0.078,-0.321 -0.18,-0.61 -0.301,-0.871 -0.097,-0.258 -0.187,-0.477 -0.269,-0.657 -0.078,-0.179 -0.118,-0.312 -0.118,-0.39 0,-0.18 0.051,-0.371 0.149,-0.571 0.101,-0.199 0.211,-0.378 0.328,-0.539 0.141,-0.179 0.281,-0.32 0.422,-0.418 0.16,-0.121 0.289,-0.179 0.391,-0.179 0.199,0 0.367,0.05 0.507,0.148 0.16,0.102 0.309,0.211 0.45,0.332 0.16,0.098 0.308,0.199 0.449,0.297 0.16,0.102 0.351,0.152 0.57,0.152 0.039,0 0.07,0 0.09,0 0.019,-0.023 0.051,-0.031 0.09,-0.031 0.277,0.457 0.5,0.957 0.66,1.496 0.156,0.52 0.316,1.039 0.477,1.559 0.179,0.5 0.39,0.988 0.628,1.469 0.262,0.46 0.622,0.867 1.079,1.226 0.121,0.102 0.261,0.211 0.421,0.332 0.161,0.117 0.321,0.238 0.477,0.36 0.18,0.117 0.352,0.218 0.512,0.296 0.179,0.082 0.34,0.122 0.48,0.122 0.219,0 0.426,-0.02 0.629,-0.059 0.219,-0.039 0.438,-0.059 0.656,-0.059 0.301,0 0.45,0.098 0.45,0.297 0,0.039 -0.02,0.121 -0.059,0.242 h 0.57 c 0.758,0 1.516,-0.089 2.278,-0.269 0.757,-0.18 1.527,-0.27 2.304,-0.27 0.36,0 0.719,0.039 1.078,0.118 0.379,0.062 0.719,0.199 1.02,0.421 0.379,-0.179 0.699,-0.41 0.961,-0.691 0.258,-0.277 0.516,-0.547 0.777,-0.809 0.258,-0.277 0.551,-0.519 0.867,-0.718 0.321,-0.219 0.731,-0.34 1.231,-0.36 0.098,-0.121 0.148,-0.258 0.148,-0.418 0.02,-0.16 0.032,-0.312 0.032,-0.449 0,-0.16 0.007,-0.312 0.027,-0.449 0.043,-0.141 0.121,-0.27 0.242,-0.391 0.199,-0.179 0.348,-0.359 0.449,-0.539 0.121,-0.199 0.18,-0.441 0.18,-0.719 0,-0.539 -0.148,-1.039 -0.449,-1.5 -0.301,-0.476 -0.692,-0.906 -1.168,-1.285 -0.461,-0.402 -1,-0.75 -1.617,-1.051 -0.602,-0.32 -1.219,-0.589 -1.86,-0.808 -0.617,-0.219 -1.219,-0.379 -1.797,-0.481 -0.578,-0.117 -1.089,-0.179 -1.527,-0.179 -0.5,0 -1,0.05 -1.5,0.152 -0.477,0.078 -0.949,0.227 -1.406,0.449 0,-0.441 -0.102,-0.73 -0.301,-0.871 -0.199,-0.14 -0.438,-0.238 -0.719,-0.297 -0.281,-0.062 -0.57,-0.14 -0.867,-0.242 -0.281,-0.117 -0.5,-0.367 -0.66,-0.75 -0.34,0.442 -0.77,0.762 -1.289,0.961 -0.5,0.199 -1.008,0.301 -1.527,0.301 -0.52,0 -1,-0.102 -1.438,-0.301 -0.441,-0.199 -0.84,-0.469 -1.199,-0.809 -0.34,-0.339 -0.617,-0.73 -0.84,-1.167 -0.199,-0.442 -0.309,-0.911 -0.328,-1.411 -0.02,-0.339 -0.09,-0.636 -0.211,-0.898 -0.117,-0.258 -0.25,-0.508 -0.387,-0.75 -0.14,-0.238 -0.269,-0.488 -0.39,-0.746 -0.102,-0.262 -0.153,-0.571 -0.153,-0.93 0,-0.898 0.043,-1.598 0.121,-2.098 0.102,-0.519 0.219,-0.91 0.36,-1.167 0.14,-0.282 0.289,-0.469 0.449,-0.571 0.18,-0.117 0.359,-0.23 0.539,-0.328 0.18,-0.121 0.351,-0.281 0.512,-0.48 0.16,-0.2 0.289,-0.52 0.386,-0.957 0.063,-0.301 0.153,-0.5 0.27,-0.602 0.121,-0.098 0.332,-0.168 0.629,-0.207 0.262,-0.043 0.43,-0.102 0.512,-0.18 0.078,-0.082 0.128,-0.172 0.148,-0.269 0.039,-0.102 0.082,-0.203 0.121,-0.301 0.039,-0.121 0.141,-0.231 0.301,-0.328 0.418,-0.281 0.828,-0.453 1.226,-0.512 0.418,-0.078 0.848,-0.121 1.289,-0.121 0.258,0 0.508,0.012 0.75,0.031 0.239,0 0.497,0 0.778,0 0.84,0 1.656,-0.039 2.457,-0.121 0.797,-0.078 1.617,-0.117 2.457,-0.117 0.637,0 1.219,0.07 1.738,0.207 0.539,0.121 1.008,0.262 1.406,0.422 0.399,0.16 0.739,0.308 1.02,0.449 0.301,0.121 0.539,0.18 0.719,0.18 0.34,0 0.66,-0.059 0.957,-0.18 0.32,-0.141 0.652,-0.219 0.988,-0.242 0.16,0.141 0.34,0.269 0.539,0.391 0.223,0.101 0.441,0.152 0.66,0.152 0.16,0 0.281,-0.051 0.36,-0.152 0.082,-0.098 0.128,-0.231 0.152,-0.391 0.277,0.082 0.547,0.223 0.809,0.422 0.257,0.199 0.488,0.437 0.687,0.719 0.219,0.257 0.391,0.55 0.508,0.867 0.121,0.301 0.18,0.59 0.18,0.871 0,0.738 -0.059,1.476 -0.18,2.215 -0.098,0.718 -0.149,1.449 -0.149,2.187 0,0.758 0.102,1.469 0.301,2.129 -0.281,0.219 -0.59,0.418 -0.93,0.598 -0.32,0.16 -0.589,0.39 -0.808,0.687 l -0.031,-0.027 c -0.141,-0.121 -0.321,-0.27 -0.539,-0.449 -0.2,-0.2 -0.418,-0.391 -0.657,-0.571 -0.222,-0.179 -0.441,-0.328 -0.66,-0.449 -0.219,-0.14 -0.422,-0.211 -0.601,-0.211 h -0.059 c -0.102,-0.058 -0.191,-0.129 -0.269,-0.207 -0.059,-0.082 -0.09,-0.18 -0.09,-0.301 0,-0.199 0.058,-0.379 0.179,-0.539 0.121,-0.16 0.18,-0.34 0.18,-0.539 0,-0.062 -0.09,-0.199 -0.269,-0.422 -0.18,-0.218 -0.391,-0.437 -0.629,-0.656 -0.219,-0.242 -0.442,-0.449 -0.661,-0.629 -0.218,-0.203 -0.378,-0.312 -0.476,-0.332 -0.203,-0.039 -0.41,-0.109 -0.633,-0.207 -0.219,-0.101 -0.437,-0.203 -0.656,-0.301 -0.223,-0.101 -0.43,-0.191 -0.629,-0.269 -0.18,-0.082 -0.332,-0.121 -0.449,-0.121 -0.262,0 -0.52,0.039 -0.782,0.121 -0.257,0.058 -0.527,0.098 -0.808,0.121 h 0.031 l -1.348,-0.152 c -0.66,-0.078 -1.308,-0.239 -1.949,-0.477 -0.637,-0.242 -1.297,-0.363 -1.976,-0.363 -0.598,0 -1.039,0.14 -1.321,0.422 -0.277,0.277 -0.507,0.597 -0.687,0.957 -0.18,0.34 -0.36,0.648 -0.539,0.929 -0.18,0.282 -0.481,0.418 -0.899,0.418 -0.121,0 -0.211,-0.007 -0.269,-0.027 0.199,0.637 0.379,1.176 0.539,1.617 0.18,0.438 0.391,0.84 0.629,1.199 0.238,0.34 0.539,0.668 0.898,0.989 0.36,0.297 0.821,0.629 1.379,0.988 0.059,0.039 0.141,0.109 0.238,0.211 0.121,0.098 0.243,0.207 0.36,0.328 0.121,0.098 0.23,0.188 0.332,0.27 0.117,0.078 0.207,0.121 0.269,0.121 0.34,0 0.657,-0.082 0.957,-0.243 0.321,-0.16 0.649,-0.238 0.989,-0.238 0.242,0 0.461,0.059 0.66,0.18 0.219,0.098 0.449,0.148 0.687,0.148 0.243,0 0.473,-0.039 0.692,-0.117 0.218,-0.101 0.457,-0.152 0.718,-0.152 0.098,0 0.2,0.012 0.301,0.031 0.117,0.02 0.227,0.039 0.328,0.059 0.598,0.16 1.2,0.242 1.797,0.242 0.598,-0.024 1.207,-0.024 1.828,0 0.438,0 0.879,0.078 1.317,0.238 0.461,0.16 0.898,0.371 1.32,0.629 0.418,0.238 0.809,0.52 1.168,0.84 0.359,0.32 0.668,0.648 0.93,0.988 0.199,0.277 0.418,0.527 0.656,0.75 0.242,0.219 0.473,0.449 0.691,0.688 0.239,0.218 0.45,0.461 0.629,0.718 0.18,0.262 0.309,0.559 0.391,0.899 0.098,0.398 0.227,0.84 0.387,1.32 0.179,0.477 0.269,0.906 0.269,1.285 z"
         style="fill:#000000;fill-opacity:1;fill-rule:nonzero;stroke:none"
         id="path1755" />
      <path
         d="m 132.539,176.441 c 0,0.86 -0.09,1.7 -0.269,2.516 -0.18,0.82 -0.329,1.648 -0.45,2.488 -0.039,0.282 -0.07,0.539 -0.09,0.778 0,0.222 -0.019,0.441 -0.058,0.66 -0.043,0.199 -0.11,0.41 -0.211,0.629 -0.102,0.199 -0.25,0.41 -0.449,0.629 -0.258,0.281 -0.438,0.582 -0.539,0.898 -0.102,0.301 -0.2,0.621 -0.301,0.961 -0.117,0.34 -0.258,0.598 -0.418,0.777 -0.141,0.161 -0.301,0.301 -0.481,0.422 -0.16,0.117 -0.339,0.239 -0.539,0.36 -0.179,0.097 -0.367,0.257 -0.57,0.476 -0.117,0.141 -0.199,0.281 -0.238,0.422 -0.02,0.141 -0.039,0.277 -0.059,0.418 -0.019,0.121 -0.07,0.238 -0.152,0.359 -0.059,0.121 -0.188,0.219 -0.387,0.301 -0.32,0.141 -0.551,0.301 -0.691,0.481 -0.141,0.156 -0.321,0.347 -0.539,0.566 -0.219,0.223 -0.508,0.43 -0.868,0.629 -0.339,0.223 -0.71,0.41 -1.109,0.57 -0.379,0.16 -0.769,0.289 -1.168,0.391 -0.398,0.098 -0.75,0.148 -1.051,0.148 -0.379,0 -0.757,-0.039 -1.136,-0.121 -0.36,-0.078 -0.731,-0.117 -1.11,-0.117 -0.218,0 -0.386,0.027 -0.508,0.09 -0.101,0.078 -0.191,0.16 -0.269,0.238 -0.082,0.078 -0.172,0.149 -0.27,0.211 -0.082,0.078 -0.211,0.117 -0.39,0.117 -0.34,0 -0.84,-0.136 -1.496,-0.418 -0.661,-0.258 -1.36,-0.558 -2.098,-0.898 -0.719,-0.32 -1.418,-0.61 -2.098,-0.867 -0.679,-0.282 -1.199,-0.422 -1.558,-0.422 -0.321,0 -0.578,0.121 -0.778,0.359 -0.179,0.219 -0.332,0.5 -0.449,0.84 -0.121,0.359 -0.211,0.738 -0.269,1.137 -0.043,0.422 -0.071,0.808 -0.09,1.168 0,0.363 0,0.66 0,0.902 0.019,0.238 0.027,0.359 0.027,0.359 0,0.2 -0.039,0.329 -0.117,0.387 -0.063,0.063 -0.152,0.09 -0.27,0.09 -0.082,0 -0.16,-0.008 -0.242,-0.027 -0.078,0 -0.168,-0.012 -0.269,-0.032 0,0.239 0.039,0.5 0.121,0.778 0.097,0.281 0.211,0.57 0.328,0.871 0.141,0.32 0.269,0.629 0.391,0.93 0.121,0.296 0.21,0.578 0.269,0.835 0.141,0.641 0.281,1.098 0.418,1.379 0.16,0.282 0.359,0.469 0.602,0.571 0.238,0.097 0.539,0.14 0.898,0.117 0.359,0 0.816,0.031 1.379,0.09 0.258,0.043 0.539,0.09 0.836,0.152 0.301,0.078 0.57,0.188 0.808,0.328 0.243,0.16 0.442,0.352 0.602,0.571 0.16,0.218 0.238,0.488 0.238,0.808 0,0.66 -0.199,1.129 -0.597,1.406 -0.379,0.282 -0.871,0.422 -1.469,0.422 -0.82,0 -1.637,-0.062 -2.457,-0.179 -0.797,-0.122 -1.617,-0.18 -2.457,-0.18 -0.879,0 -1.758,0.051 -2.637,0.148 -0.859,0.102 -1.719,0.149 -2.574,0.149 -0.223,0 -0.531,-0.039 -0.93,-0.117 -0.379,-0.083 -0.769,-0.2 -1.168,-0.36 -0.379,-0.14 -0.718,-0.32 -1.019,-0.539 -0.282,-0.199 -0.418,-0.43 -0.418,-0.691 0,-0.18 0.097,-0.36 0.297,-0.539 0.222,-0.161 0.461,-0.297 0.718,-0.418 0.282,-0.121 0.563,-0.219 0.84,-0.301 0.281,-0.059 0.5,-0.09 0.66,-0.09 0.36,0 0.688,-0.059 0.989,-0.18 0.32,-0.097 0.629,-0.211 0.929,-0.328 0.297,-0.121 0.598,-0.242 0.899,-0.359 0.301,-0.102 0.617,-0.152 0.957,-0.152 0.18,-0.758 0.289,-1.516 0.332,-2.274 0.058,-0.762 0.09,-1.519 0.09,-2.277 0,-0.539 -0.012,-1.078 -0.032,-1.617 0,-0.543 0,-1.082 0,-1.622 0,-1.058 0.071,-2.105 0.211,-3.144 0.161,-1.039 0.239,-2.098 0.239,-3.176 0,-0.66 -0.032,-1.316 -0.09,-1.976 -0.039,-0.661 -0.078,-1.321 -0.121,-1.977 -0.059,-0.082 -0.129,-0.34 -0.207,-0.781 -0.082,-0.457 -0.16,-0.957 -0.242,-1.496 -0.059,-0.539 -0.11,-1.051 -0.149,-1.528 -0.039,-0.5 -0.058,-0.832 -0.058,-0.988 0,-0.223 0.027,-0.41 0.089,-0.57 0.078,-0.18 0.157,-0.328 0.239,-0.45 0.078,-0.14 0.148,-0.261 0.211,-0.359 0.078,-0.101 0.117,-0.191 0.117,-0.269 0,-0.02 -0.028,-0.09 -0.09,-0.211 -0.059,-0.121 -0.129,-0.27 -0.207,-0.45 -0.063,-0.179 -0.121,-0.378 -0.18,-0.597 -0.062,-0.223 -0.09,-0.442 -0.09,-0.66 0,-0.641 0.067,-1.278 0.207,-1.918 0.161,-0.641 0.243,-1.278 0.243,-1.918 0,-0.86 -0.313,-1.606 -0.93,-2.246 -0.301,-0.301 -0.539,-0.532 -0.719,-0.688 -0.18,-0.16 -0.359,-0.269 -0.539,-0.332 -0.18,-0.078 -0.391,-0.129 -0.629,-0.148 -0.242,-0.039 -0.57,-0.09 -0.988,-0.149 -0.223,-0.023 -0.531,-0.082 -0.93,-0.179 -0.379,-0.122 -0.758,-0.262 -1.14,-0.422 -0.379,-0.161 -0.719,-0.348 -1.016,-0.571 -0.281,-0.218 -0.422,-0.457 -0.422,-0.718 0,-0.34 0.16,-0.629 0.481,-0.868 0.32,-0.261 0.687,-0.461 1.109,-0.597 0.437,-0.16 0.879,-0.274 1.316,-0.332 0.442,-0.078 0.789,-0.121 1.051,-0.121 0.277,0 0.559,0.031 0.836,0.089 0.281,0.043 0.52,0.161 0.719,0.364 0.222,-0.223 0.492,-0.364 0.812,-0.422 0.317,-0.078 0.629,-0.121 0.926,-0.121 0.859,0 1.52,0.133 1.977,0.39 0.461,0.262 0.82,0.551 1.082,0.871 0.277,0.297 0.496,0.579 0.656,0.836 0.18,0.262 0.402,0.391 0.66,0.391 0.16,0 0.309,-0.031 0.449,-0.09 0.16,-0.058 0.321,-0.129 0.481,-0.211 0.418,-0.199 1.047,-0.437 1.886,-0.718 0.84,-0.297 1.727,-0.579 2.668,-0.836 0.938,-0.282 1.836,-0.512 2.696,-0.692 0.859,-0.18 1.508,-0.269 1.945,-0.269 0.223,0 0.531,0.058 0.93,0.179 0.418,0.102 0.879,0.239 1.379,0.418 0.5,0.16 1.019,0.364 1.558,0.602 0.539,0.219 1.039,0.449 1.496,0.687 0.461,0.243 0.86,0.481 1.2,0.719 0.339,0.223 0.57,0.422 0.687,0.602 0.223,0.359 0.449,0.668 0.691,0.925 0.258,0.262 0.598,0.461 1.02,0.602 0.117,0.16 0.187,0.328 0.207,0.508 0.039,0.179 0.063,0.371 0.063,0.57 v 0.57 c 0,0.399 0.066,0.707 0.207,0.926 0.14,0.223 0.289,0.41 0.449,0.571 0.16,0.14 0.312,0.281 0.449,0.421 0.141,0.118 0.211,0.297 0.211,0.539 0,0.137 -0.039,0.27 -0.121,0.387 -0.078,0.102 -0.117,0.211 -0.117,0.332 0,0.297 0.07,0.61 0.207,0.926 0.14,0.301 0.289,0.641 0.449,1.02 0.16,0.359 0.312,0.75 0.449,1.167 0.141,0.422 0.211,0.879 0.211,1.379 z M 118.816,163.68 c 0,-0.102 -0.046,-0.2 -0.148,-0.301 -0.098,-0.098 -0.199,-0.149 -0.301,-0.149 -0.199,0 -0.328,0.11 -0.387,0.329 -0.039,0.199 -0.062,0.382 -0.062,0.539 0,-0.039 0.012,-0.059 0.031,-0.059 0.039,0 0.071,0.012 0.09,0.031 l -0.121,0.059 c 0.141,0 0.32,-0.02 0.539,-0.059 0.242,-0.062 0.359,-0.191 0.359,-0.39 z m 10.188,13.691 c 0,-0.598 -0.078,-1.18 -0.238,-1.738 -0.161,-0.578 -0.36,-1.129 -0.602,-1.649 -0.238,-0.539 -0.508,-1.058 -0.809,-1.554 -0.296,-0.5 -0.597,-0.992 -0.898,-1.469 -0.078,-0.121 -0.129,-0.25 -0.148,-0.391 -0.02,-0.16 -0.032,-0.308 -0.032,-0.449 0,-0.16 -0.019,-0.309 -0.058,-0.449 -0.02,-0.16 -0.082,-0.301 -0.18,-0.418 -0.16,-0.18 -0.309,-0.281 -0.449,-0.301 -0.141,-0.039 -0.281,-0.07 -0.422,-0.09 -0.117,-0.019 -0.258,-0.07 -0.418,-0.152 -0.141,-0.078 -0.281,-0.258 -0.418,-0.539 -0.102,-0.18 -0.32,-0.379 -0.66,-0.598 -0.32,-0.219 -0.68,-0.429 -1.078,-0.629 -0.379,-0.199 -0.758,-0.359 -1.141,-0.48 -0.359,-0.141 -0.637,-0.207 -0.836,-0.207 -0.402,0 -0.801,0.09 -1.199,0.269 -0.379,0.157 -0.77,0.239 -1.168,0.239 -0.281,0 -0.539,-0.051 -0.781,-0.149 -0.219,-0.101 -0.438,-0.203 -0.657,-0.301 -0.203,-0.121 -0.41,-0.23 -0.628,-0.332 -0.223,-0.097 -0.45,-0.148 -0.692,-0.148 h -0.148 c 0.039,0.199 0.058,0.359 0.058,0.48 0,0.18 -0.039,0.329 -0.121,0.45 -0.078,0.097 -0.187,0.187 -0.328,0.269 -0.121,0.078 -0.258,0.16 -0.418,0.238 -0.14,0.063 -0.269,0.133 -0.39,0.211 -0.18,0.219 -0.282,0.438 -0.301,0.661 0,0.218 -0.098,0.328 -0.297,0.328 -0.141,0 -0.25,-0.02 -0.332,-0.059 0,0.141 -0.039,0.238 -0.117,0.297 -0.082,0.062 -0.172,0.113 -0.27,0.152 -0.101,0.039 -0.203,0.09 -0.301,0.149 -0.101,0.039 -0.16,0.121 -0.179,0.242 -0.262,0.019 -0.5,0.18 -0.719,0.476 -0.219,0.282 -0.41,0.641 -0.57,1.079 -0.161,0.441 -0.301,0.929 -0.418,1.468 -0.121,0.539 -0.223,1.071 -0.301,1.59 -0.078,0.496 -0.141,0.969 -0.18,1.406 -0.039,0.418 -0.058,0.739 -0.058,0.961 0,0.719 0.039,1.438 0.117,2.157 0.101,0.699 0.152,1.406 0.152,2.125 0,0.539 -0.019,1.078 -0.062,1.617 -0.02,0.543 -0.047,1.09 -0.09,1.648 0.5,0.539 0.98,1.078 1.437,1.617 0.461,0.54 0.942,1.032 1.442,1.469 0.519,0.422 1.086,0.781 1.707,1.078 0.617,0.282 1.336,0.43 2.156,0.45 0.32,0 0.641,0.043 0.957,0.121 0.32,0.082 0.641,0.16 0.961,0.238 0.32,0.082 0.629,0.16 0.93,0.242 0.316,0.059 0.636,0.09 0.957,0.09 0.3,0 0.617,-0.063 0.957,-0.18 0.339,-0.14 0.672,-0.308 0.992,-0.511 0.336,-0.2 0.656,-0.407 0.957,-0.629 0.301,-0.239 0.551,-0.469 0.75,-0.688 0.16,-0.18 0.348,-0.308 0.566,-0.39 0.242,-0.079 0.442,-0.2 0.602,-0.36 0.117,-0.117 0.199,-0.25 0.238,-0.387 0.039,-0.14 0.07,-0.281 0.09,-0.421 0.039,-0.141 0.09,-0.27 0.152,-0.391 0.059,-0.137 0.18,-0.258 0.36,-0.359 0.379,-0.2 0.617,-0.34 0.718,-0.418 0.098,-0.102 0.149,-0.27 0.149,-0.508 v -0.571 c 0,-0.199 0.051,-0.339 0.148,-0.418 0.102,-0.101 0.211,-0.191 0.332,-0.269 0.118,-0.102 0.227,-0.223 0.328,-0.359 0.102,-0.161 0.149,-0.422 0.149,-0.782 0,-0.257 -0.02,-0.507 -0.059,-0.75 -0.039,-0.257 -0.058,-0.519 -0.058,-0.777 0,-0.262 0.039,-0.5 0.117,-0.719 0.101,-0.219 0.203,-0.429 0.301,-0.629 0.121,-0.199 0.218,-0.39 0.3,-0.57 0.098,-0.199 0.149,-0.41 0.149,-0.629 z"
         style="fill:#000000;fill-opacity:1;fill-rule:nonzero;stroke:none"
         id="path1757" />
      <path
         d="m 165.793,184.77 c 0,0.539 -0.09,1 -0.27,1.378 -0.16,0.379 -0.378,0.719 -0.656,1.02 -0.262,0.301 -0.57,0.578 -0.929,0.84 -0.34,0.258 -0.692,0.539 -1.051,0.836 -0.278,0.242 -0.528,0.422 -0.746,0.539 -0.223,0.121 -0.442,0.222 -0.661,0.301 -0.199,0.082 -0.418,0.16 -0.66,0.242 -0.218,0.078 -0.476,0.187 -0.777,0.328 -0.398,0.199 -0.738,0.391 -1.02,0.57 -0.257,0.16 -0.527,0.309 -0.808,0.449 -0.262,0.141 -0.551,0.25 -0.867,0.329 -0.321,0.101 -0.723,0.179 -1.2,0.238 -0.8,0.101 -1.609,0.222 -2.425,0.363 -0.801,0.137 -1.602,0.207 -2.399,0.207 -0.16,0 -0.328,-0.039 -0.508,-0.117 -0.16,-0.063 -0.351,-0.133 -0.57,-0.211 -0.219,-0.062 -0.469,-0.129 -0.75,-0.211 -0.258,-0.059 -0.578,-0.09 -0.957,-0.09 -0.402,0 -0.719,-0.058 -0.961,-0.179 -0.238,-0.122 -0.457,-0.258 -0.656,-0.418 -0.18,-0.161 -0.371,-0.332 -0.57,-0.512 -0.2,-0.199 -0.461,-0.367 -0.782,-0.508 -1.195,-0.539 -2.215,-1.187 -3.054,-1.949 -0.84,-0.758 -1.559,-1.606 -2.157,-2.543 -0.597,-0.942 -1.097,-1.961 -1.5,-3.059 -0.398,-1.097 -0.738,-2.246 -1.015,-3.445 -0.223,-0.84 -0.332,-1.676 -0.332,-2.516 0,-1.097 0.261,-2.117 0.781,-3.054 -0.199,-0.559 -0.301,-1.102 -0.301,-1.618 0,-0.382 0.11,-0.941 0.328,-1.679 0.223,-0.758 0.5,-1.52 0.84,-2.278 0.36,-0.757 0.738,-1.437 1.141,-2.035 0.418,-0.621 0.808,-1 1.168,-1.14 0.277,-0.098 0.469,-0.18 0.566,-0.239 0.121,-0.082 0.18,-0.281 0.18,-0.601 0,-0.238 0.09,-0.438 0.269,-0.598 0.204,-0.16 0.43,-0.289 0.692,-0.39 0.277,-0.098 0.547,-0.188 0.808,-0.27 0.278,-0.078 0.508,-0.16 0.688,-0.238 0.738,-0.36 1.437,-0.66 2.098,-0.899 0.679,-0.261 1.347,-0.468 2.007,-0.629 0.68,-0.179 1.379,-0.308 2.098,-0.39 0.719,-0.078 1.488,-0.121 2.305,-0.121 0.441,0 0.871,0.062 1.289,0.179 0.422,0.121 0.82,0.282 1.199,0.481 0.398,0.179 0.789,0.39 1.168,0.629 0.379,0.218 0.75,0.441 1.109,0.66 h -0.031 c 0.301,0.039 0.582,0.129 0.84,0.269 0.281,0.121 0.57,0.2 0.867,0.239 0.281,0.34 0.641,0.672 1.078,0.988 0.461,0.301 0.903,0.621 1.321,0.961 0.437,0.34 0.808,0.707 1.109,1.109 0.32,0.379 0.476,0.817 0.476,1.317 0,0.078 -0.007,0.16 -0.027,0.238 0,0.082 -0.012,0.172 -0.031,0.269 l 0.121,-0.148 c 0.078,0.059 0.148,0.16 0.207,0.301 0.082,0.14 0.152,0.297 0.211,0.48 0.059,0.157 0.109,0.328 0.152,0.508 0.039,0.16 0.067,0.289 0.09,0.391 0.156,0.258 0.367,0.468 0.629,0.629 0.277,0.16 0.496,0.379 0.656,0.656 -0.199,0.203 -0.297,0.461 -0.297,0.781 0,0.34 0.071,0.68 0.207,1.02 0.141,0.316 0.211,0.648 0.211,0.988 0,0.398 -0.019,0.789 -0.058,1.168 -0.039,0.359 -0.063,0.738 -0.063,1.137 0,0.3 -0.117,0.531 -0.359,0.691 -0.219,0.16 -0.469,0.297 -0.746,0.418 -0.262,0.121 -0.5,0.238 -0.719,0.359 -0.223,0.121 -0.332,0.289 -0.332,0.508 0,0.16 -0.098,0.242 -0.297,0.242 -0.18,-0.019 -0.332,-0.031 -0.453,-0.031 -0.879,0 -1.754,-0.109 -2.633,-0.328 -0.859,-0.223 -1.719,-0.332 -2.578,-0.332 -0.937,0 -1.867,0.07 -2.785,0.211 -0.922,0.121 -1.848,0.18 -2.789,0.18 -0.699,0 -1.395,-0.02 -2.094,-0.059 -0.68,-0.039 -1.371,-0.062 -2.07,-0.062 -0.18,0 -0.52,0.042 -1.016,0.121 -0.5,0.058 -1.031,0.148 -1.59,0.269 -0.539,0.102 -1.058,0.231 -1.558,0.391 -0.5,0.14 -0.848,0.277 -1.047,0.418 -0.02,0.101 -0.031,0.242 -0.031,0.422 0,0.937 0.269,1.906 0.808,2.906 0.559,0.996 1.289,1.906 2.188,2.723 0.898,0.82 1.906,1.5 3.027,2.039 1.117,0.539 2.246,0.808 3.383,0.808 0.66,0 1.308,0.031 1.949,0.09 0.66,0.039 1.297,0.18 1.918,0.418 0.539,-0.258 1.027,-0.559 1.469,-0.898 0.457,-0.34 0.898,-0.7 1.316,-1.079 0.418,-0.378 0.828,-0.769 1.231,-1.168 0.398,-0.398 0.808,-0.796 1.226,-1.199 0.078,-0.078 0.27,-0.148 0.571,-0.207 0.316,-0.082 0.656,-0.14 1.015,-0.179 0.36,-0.063 0.699,-0.102 1.02,-0.122 0.34,-0.039 0.57,-0.058 0.691,-0.058 0.457,0 0.887,0.07 1.285,0.207 0.121,0.461 0.18,0.91 0.18,1.351 z m -4.492,-12.161 c 0,-0.3 -0.051,-0.589 -0.149,-0.871 -0.101,-0.277 -0.179,-0.57 -0.242,-0.867 -0.098,-0.559 -0.148,-1.101 -0.148,-1.617 0,-0.543 -0.082,-1.082 -0.239,-1.621 h -0.031 c 0,0.121 -0.039,0.242 -0.121,0.359 -0.078,0.102 -0.187,0.153 -0.328,0.153 -0.242,0 -0.469,-0.063 -0.691,-0.18 -0.219,-0.121 -0.407,-0.27 -0.567,-0.449 -0.762,-0.34 -1.449,-0.661 -2.07,-0.961 -0.598,-0.297 -1.207,-0.559 -1.824,-0.778 -0.602,-0.238 -1.25,-0.422 -1.95,-0.539 -0.679,-0.14 -1.468,-0.211 -2.367,-0.211 -0.078,0 -0.16,0.012 -0.238,0.032 -0.063,0 -0.121,0.027 -0.18,0.089 l 0.149,0.329 -0.239,0.058 c -0.539,0.102 -0.988,0.203 -1.347,0.301 -0.34,0.082 -0.653,0.199 -0.93,0.359 -0.281,0.16 -0.559,0.36 -0.84,0.602 -0.258,0.219 -0.597,0.508 -1.019,0.867 -0.2,0.18 -0.418,0.32 -0.657,0.418 -0.222,0.082 -0.449,0.16 -0.691,0.242 -0.219,0.059 -0.437,0.129 -0.66,0.207 -0.199,0.082 -0.367,0.211 -0.508,0.391 -0.141,0.5 -0.348,0.988 -0.629,1.469 -0.258,0.461 -0.39,0.949 -0.39,1.468 0,0.301 0.121,0.571 0.359,0.809 0.262,0.219 0.582,0.41 0.961,0.57 0.398,0.16 0.828,0.297 1.289,0.418 0.476,0.121 0.945,0.211 1.406,0.27 0.461,0.058 0.879,0.109 1.258,0.148 0.398,0.02 0.711,0.031 0.93,0.031 0.757,0 1.507,-0.07 2.246,-0.21 0.738,-0.161 1.488,-0.239 2.246,-0.239 0.781,0 1.558,0.039 2.34,0.121 0.777,0.059 1.554,0.09 2.336,0.09 0.199,0 0.5,-0.012 0.898,-0.031 0.398,-0.02 0.789,-0.07 1.168,-0.148 0.398,-0.102 0.738,-0.231 1.02,-0.391 0.296,-0.18 0.449,-0.41 0.449,-0.688 z"
         style="fill:#000000;fill-opacity:1;fill-rule:nonzero;stroke:none"
         id="path1759" />
      <path
         d="m 205.191,189.895 c 0,0.277 -0.05,0.488 -0.148,0.628 -0.102,0.122 -0.223,0.231 -0.363,0.329 -0.118,0.101 -0.227,0.199 -0.328,0.3 -0.098,0.102 -0.149,0.25 -0.149,0.45 0,0.121 0.008,0.21 0.027,0.269 -0.695,0.18 -1.476,0.301 -2.335,0.359 -0.836,0.059 -1.618,0.09 -2.336,0.09 -0.102,0 -0.231,-0.031 -0.391,-0.09 -0.137,-0.039 -0.277,-0.097 -0.418,-0.179 -0.141,-0.059 -0.262,-0.149 -0.359,-0.27 -0.082,-0.097 -0.121,-0.211 -0.121,-0.328 -0.239,0.078 -0.508,0.141 -0.809,0.18 -0.277,0.058 -0.559,0.129 -0.84,0.207 -0.258,0.082 -0.508,0.191 -0.746,0.332 -0.242,0.14 -0.441,0.328 -0.602,0.57 -0.257,-0.082 -0.609,-0.152 -1.046,-0.211 -0.422,-0.062 -0.872,-0.129 -1.348,-0.211 -0.481,-0.078 -0.961,-0.179 -1.438,-0.3 -0.48,-0.098 -0.921,-0.239 -1.32,-0.418 -0.379,-0.161 -0.699,-0.36 -0.957,-0.598 -0.242,-0.242 -0.359,-0.539 -0.359,-0.899 0,-0.101 0.007,-0.269 0.027,-0.511 0.02,-0.258 0.063,-0.52 0.121,-0.778 0.059,-0.261 0.129,-0.492 0.211,-0.691 0.098,-0.199 0.207,-0.297 0.328,-0.297 0.199,0 0.391,0.039 0.57,0.117 0.2,0.082 0.411,0.121 0.629,0.121 l 0.301,-0.031 0.028,-0.238 c 0,-0.16 -0.051,-0.281 -0.149,-0.359 -0.082,-0.102 -0.191,-0.161 -0.328,-0.18 -0.141,-0.039 -0.281,-0.059 -0.422,-0.059 -0.141,0 -0.269,0 -0.391,0 0.262,-0.261 0.43,-0.57 0.512,-0.929 0.078,-0.36 0.121,-0.711 0.121,-1.047 0,-0.364 -0.051,-0.77 -0.152,-1.231 -0.078,-0.48 -0.219,-0.937 -0.418,-1.379 -0.199,-0.437 -0.449,-0.828 -0.75,-1.168 -0.277,-0.34 -0.617,-0.558 -1.02,-0.66 -0.117,-0.258 -0.257,-0.527 -0.418,-0.808 -0.16,-0.297 -0.347,-0.567 -0.57,-0.809 -0.199,-0.238 -0.437,-0.438 -0.719,-0.598 -0.257,-0.16 -0.546,-0.242 -0.867,-0.242 -0.359,0 -0.82,0.192 -1.379,0.57 -0.558,0.379 -1.109,0.821 -1.648,1.321 -0.52,0.476 -0.977,0.949 -1.379,1.406 -0.379,0.461 -0.566,0.77 -0.566,0.93 0,0.218 0.027,0.429 0.089,0.629 0.059,0.199 0.09,0.41 0.09,0.628 0,0.34 -0.07,0.649 -0.211,0.93 -0.14,0.278 -0.32,0.528 -0.539,0.75 0.059,0.36 0.211,0.629 0.449,0.809 0.239,0.179 0.52,0.316 0.84,0.418 0.34,0.078 0.676,0.14 1.016,0.179 0.34,0.02 0.652,0.059 0.93,0.122 0.121,0.117 0.289,0.269 0.511,0.449 0.239,0.179 0.457,0.379 0.657,0.597 0.222,0.2 0.41,0.411 0.57,0.629 0.16,0.219 0.238,0.422 0.238,0.602 0,0.199 -0.078,0.316 -0.238,0.359 -0.141,0.039 -0.301,0.067 -0.481,0.09 -0.179,0.02 -0.347,0.059 -0.507,0.117 -0.141,0.063 -0.211,0.192 -0.211,0.391 0,0.141 0.019,0.258 0.062,0.359 -0.961,0.039 -1.898,0.141 -2.816,0.301 -0.899,0.141 -1.809,0.32 -2.727,0.539 -0.379,0.098 -0.761,0.16 -1.14,0.18 -0.379,0.019 -0.77,0.027 -1.168,0.027 -0.379,0 -0.77,0.012 -1.168,0.031 -0.399,0.02 -0.789,0.071 -1.168,0.153 -0.282,0.058 -0.559,0.09 -0.84,0.09 -0.457,0 -0.887,-0.09 -1.289,-0.27 -0.399,-0.18 -0.746,-0.43 -1.047,-0.75 -0.301,-0.32 -0.539,-0.68 -0.719,-1.078 -0.16,-0.402 -0.238,-0.832 -0.238,-1.289 0,-0.442 0.117,-0.848 0.359,-1.231 0.258,-0.378 0.649,-0.566 1.168,-0.566 0.16,0 0.289,0.078 0.387,0.238 0.102,0.141 0.23,0.211 0.391,0.211 0.082,0 0.148,-0.039 0.211,-0.121 0.058,-0.101 0.117,-0.211 0.179,-0.328 0.078,-0.121 0.18,-0.23 0.297,-0.332 0.121,-0.098 0.27,-0.168 0.453,-0.207 0.559,-0.082 1.016,-0.27 1.375,-0.57 0.379,-0.301 0.672,-0.661 0.871,-1.079 0.199,-0.441 0.34,-0.91 0.418,-1.41 0.082,-0.519 0.121,-1.027 0.121,-1.527 0,-0.398 -0.05,-0.777 -0.152,-1.137 -0.078,-0.379 -0.117,-0.761 -0.117,-1.14 0,-0.52 0.09,-1.047 0.269,-1.586 0.2,-0.559 0.297,-1.18 0.297,-1.86 0,-0.937 -0.058,-1.855 -0.179,-2.754 -0.098,-0.921 -0.149,-1.847 -0.149,-2.789 0,-0.699 0.039,-1.406 0.121,-2.125 0.078,-0.718 0.117,-1.429 0.117,-2.129 0,-0.257 -0.039,-0.496 -0.117,-0.718 -0.062,-0.239 -0.129,-0.457 -0.211,-0.657 -0.078,-0.222 -0.16,-0.421 -0.238,-0.601 -0.063,-0.199 -0.09,-0.399 -0.09,-0.598 0,-0.398 0.07,-0.801 0.207,-1.199 0.141,-0.398 0.211,-0.801 0.211,-1.199 0,-0.457 -0.078,-0.899 -0.238,-1.317 -0.141,-0.421 -0.211,-0.859 -0.211,-1.32 0,-0.34 0.031,-0.68 0.09,-1.016 0.078,-0.363 0.121,-0.722 0.121,-1.082 0,-0.718 -0.16,-1.257 -0.481,-1.617 -0.3,-0.359 -0.679,-0.617 -1.136,-0.777 -0.461,-0.18 -0.969,-0.289 -1.532,-0.332 -0.539,-0.039 -1.035,-0.098 -1.496,-0.18 -0.461,-0.097 -0.847,-0.258 -1.168,-0.476 -0.3,-0.219 -0.449,-0.582 -0.449,-1.078 0,-0.583 0.129,-1.051 0.387,-1.411 0.262,-0.379 0.59,-0.668 0.992,-0.867 0.398,-0.199 0.836,-0.332 1.316,-0.39 0.481,-0.079 0.95,-0.122 1.411,-0.122 1.296,0.282 2.316,0.52 3.054,0.719 0.739,0.203 1.289,0.371 1.649,0.512 0.379,0.141 0.609,0.25 0.687,0.328 0.102,0.082 0.168,0.152 0.211,0.211 0.117,0.359 0.219,0.898 0.297,1.617 0.102,0.719 0.18,1.477 0.242,2.277 0.059,0.778 0.098,1.54 0.117,2.278 0.043,0.719 0.063,1.258 0.063,1.617 0,0.539 -0.082,1.059 -0.242,1.559 -0.16,0.476 -0.239,0.976 -0.239,1.496 0,0.558 0.071,1.097 0.211,1.617 0.161,0.519 0.258,1.059 0.297,1.621 0.024,0.359 0.031,0.719 0.031,1.078 0.02,0.34 0.032,0.688 0.032,1.047 0,0.52 -0.012,1.051 -0.032,1.59 0,0.539 0,1.078 0,1.617 0,0.758 0.02,1.508 0.059,2.246 0.043,0.738 0.121,1.477 0.242,2.219 0.098,0.039 0.188,0.058 0.27,0.058 0.078,0 0.168,0 0.269,0 0.399,0 0.727,-0.101 0.989,-0.3 0.257,-0.219 0.5,-0.469 0.718,-0.75 0.219,-0.278 0.45,-0.559 0.688,-0.836 0.242,-0.301 0.539,-0.531 0.902,-0.692 0.477,-0.199 0.875,-0.488 1.196,-0.867 0.339,-0.398 0.66,-0.808 0.96,-1.23 0.297,-0.418 0.61,-0.809 0.926,-1.168 0.34,-0.379 0.75,-0.668 1.231,-0.867 0.5,-0.2 0.75,-0.559 0.75,-1.079 0,-0.3 -0.043,-0.589 -0.121,-0.871 -0.079,-0.297 -0.18,-0.59 -0.301,-0.867 -0.098,-0.281 -0.188,-0.558 -0.27,-0.84 -0.078,-0.3 -0.117,-0.597 -0.117,-0.898 l 0.027,-0.328 0.243,0.027 h 0.089 c 0.079,0 0.161,0 0.239,0 0.078,-0.019 0.121,-0.066 0.121,-0.148 -0.102,-0.161 -0.153,-0.34 -0.153,-0.539 0,-0.282 0.063,-0.461 0.18,-0.54 0.141,-0.078 0.332,-0.121 0.57,-0.121 0.442,0 0.86,0.082 1.258,0.243 0.422,0.16 0.852,0.238 1.289,0.238 0.321,0 0.618,-0.039 0.899,-0.121 0.301,-0.098 0.597,-0.199 0.898,-0.297 0.301,-0.121 0.59,-0.223 0.871,-0.301 0.297,-0.101 0.61,-0.148 0.926,-0.148 0.539,0 1.07,0.07 1.59,0.207 0.519,0.14 1.047,0.211 1.586,0.211 0.559,0 1.109,-0.078 1.648,-0.239 0.539,-0.16 1.098,-0.242 1.68,-0.242 0.098,0 0.238,0.031 0.418,0.09 0.18,0.063 0.348,0.141 0.508,0.242 0.179,0.098 0.332,0.207 0.449,0.328 0.141,0.121 0.211,0.239 0.211,0.36 -0.039,0.14 -0.121,0.238 -0.238,0.3 -0.121,0.04 -0.18,0.098 -0.18,0.18 0,0.098 0.051,0.219 0.148,0.36 0.102,0.117 0.211,0.257 0.332,0.418 0.137,0.14 0.258,0.3 0.36,0.48 0.097,0.16 0.148,0.328 0.148,0.508 0,0.262 -0.238,0.512 -0.718,0.75 -0.481,0.238 -1.04,0.461 -1.68,0.66 -0.617,0.18 -1.227,0.328 -1.824,0.449 -0.602,0.098 -1.02,0.149 -1.262,0.149 -0.418,0 -0.738,-0.071 -0.957,-0.211 -0.199,-0.16 -0.399,-0.239 -0.598,-0.239 -0.32,0 -0.73,0.129 -1.23,0.391 -0.5,0.238 -1.039,0.559 -1.617,0.957 -0.559,0.398 -1.129,0.859 -1.707,1.379 -0.579,0.5 -1.11,1 -1.59,1.496 -0.457,0.5 -0.848,0.981 -1.168,1.441 -0.297,0.458 -0.45,0.836 -0.45,1.137 -0.019,0.321 -0.07,0.629 -0.148,0.93 -0.082,0.297 -0.121,0.609 -0.121,0.926 0,0.281 0.09,0.511 0.269,0.691 0.18,0.18 0.391,0.348 0.629,0.508 0.243,0.14 0.481,0.301 0.719,0.48 0.262,0.18 0.449,0.399 0.57,0.66 0.18,0.399 0.45,0.86 0.809,1.376 0.359,0.5 0.75,1.039 1.168,1.621 0.441,0.558 0.879,1.129 1.32,1.707 0.438,0.578 0.836,1.148 1.196,1.707 0.382,0.539 0.679,1.058 0.902,1.558 0.238,0.477 0.359,0.899 0.359,1.258 v 0.211 c 0.996,-0.223 1.977,-0.332 2.934,-0.332 0.66,0 1.309,0.039 1.949,0.121 0.656,0.059 1.309,0.129 1.945,0.211 v 0.418 c 0,0.398 0.071,0.73 0.211,0.988 0.141,0.239 0.301,0.461 0.481,0.66 0.18,0.18 0.34,0.36 0.476,0.539 0.141,0.161 0.211,0.34 0.211,0.54 z"
         style="fill:#000000;fill-opacity:1;fill-rule:nonzero;stroke:none"
         id="path1761" />
      <path
         d="m 236.438,180.398 c 0,0.637 -0.071,1.247 -0.211,1.825 -0.137,0.562 -0.297,1.121 -0.477,1.679 -0.18,0.539 -0.371,1.098 -0.57,1.676 -0.18,0.563 -0.321,1.141 -0.418,1.738 -0.18,1 -0.539,1.829 -1.078,2.489 -0.539,0.66 -1.192,1.179 -1.95,1.558 -0.757,0.399 -1.609,0.688 -2.546,0.867 -0.918,0.2 -1.868,0.352 -2.844,0.45 -0.981,0.101 -1.949,0.172 -2.906,0.211 -0.942,0.039 -1.809,0.109 -2.61,0.211 -0.297,-0.223 -0.547,-0.461 -0.746,-0.723 -0.203,-0.258 -0.391,-0.508 -0.57,-0.746 -0.18,-0.223 -0.379,-0.41 -0.602,-0.571 -0.219,-0.14 -0.508,-0.21 -0.867,-0.21 -0.121,0 -0.219,-0.161 -0.301,-0.477 -0.058,-0.34 -0.117,-0.711 -0.18,-1.109 -0.058,-0.422 -0.128,-0.789 -0.207,-1.11 -0.062,-0.34 -0.152,-0.508 -0.269,-0.508 -0.461,0 -0.832,-0.101 -1.109,-0.3 -0.262,-0.2 -0.469,-0.45 -0.629,-0.75 -0.141,-0.321 -0.243,-0.668 -0.301,-1.047 -0.039,-0.379 -0.059,-0.75 -0.059,-1.11 0,-0.281 -0.062,-0.539 -0.179,-0.777 -0.121,-0.242 -0.25,-0.473 -0.391,-0.691 -0.141,-0.239 -0.27,-0.477 -0.391,-0.719 -0.117,-0.238 -0.179,-0.488 -0.179,-0.75 0,-0.297 0.011,-0.668 0.031,-1.106 0.039,-0.46 0.07,-0.929 0.09,-1.41 0.039,-0.48 0.07,-0.949 0.09,-1.406 0.039,-0.461 0.058,-0.84 0.058,-1.141 0,-0.359 0.043,-0.656 0.121,-0.898 0.102,-0.238 0.211,-0.449 0.328,-0.629 0.122,-0.18 0.223,-0.34 0.301,-0.48 0.102,-0.137 0.149,-0.297 0.149,-0.477 0,-0.242 -0.059,-0.441 -0.18,-0.602 -0.098,-0.16 -0.148,-0.32 -0.148,-0.476 0,-0.223 0.07,-0.43 0.21,-0.629 0.141,-0.223 0.239,-0.441 0.297,-0.66 0.223,-0.879 0.332,-1.75 0.332,-2.606 0,-0.179 -0.011,-0.351 -0.031,-0.511 0,-0.18 -0.008,-0.348 -0.031,-0.508 -0.457,-0.379 -0.969,-0.621 -1.527,-0.719 -0.559,-0.121 -1.118,-0.199 -1.676,-0.242 -0.559,-0.059 -1.098,-0.129 -1.617,-0.207 -0.52,-0.082 -0.961,-0.293 -1.321,-0.629 -0.301,-0.281 -0.57,-0.59 -0.808,-0.93 -0.239,-0.359 -0.559,-0.601 -0.957,-0.718 -0.282,-0.102 -0.52,-0.231 -0.719,-0.391 -0.18,-0.18 -0.27,-0.43 -0.27,-0.75 0,-0.477 0.137,-0.836 0.418,-1.078 0.301,-0.258 0.649,-0.457 1.047,-0.598 0.403,-0.16 0.809,-0.289 1.231,-0.391 0.437,-0.121 0.808,-0.289 1.109,-0.507 0.297,-0.223 0.656,-0.332 1.078,-0.332 0.18,0 0.348,0.011 0.508,0.031 0.18,0 0.359,0 0.539,0 0.5,0 0.91,-0.078 1.23,-0.238 0.34,-0.18 0.598,-0.411 0.778,-0.692 0.199,-0.297 0.328,-0.636 0.39,-1.015 0.079,-0.383 0.118,-0.789 0.118,-1.231 0,-0.64 -0.039,-1.258 -0.118,-1.855 -0.082,-0.602 -0.121,-1.219 -0.121,-1.86 0,-0.738 0.102,-1.418 0.301,-2.035 0.199,-0.621 0.578,-1.191 1.137,-1.711 0.121,-0.097 0.25,-0.226 0.39,-0.387 0.141,-0.16 0.29,-0.312 0.45,-0.449 0.16,-0.16 0.32,-0.293 0.48,-0.39 0.18,-0.102 0.36,-0.149 0.539,-0.149 0.117,0 0.219,0.028 0.297,0.09 0.102,0.039 0.199,0.098 0.301,0.18 0.441,0.437 0.719,0.765 0.84,0.988 0.14,0.199 0.211,0.438 0.211,0.719 0,0.16 -0.012,0.34 -0.032,0.539 0,0.18 0,0.418 0,0.719 0,0.636 0.079,1.269 0.239,1.886 0.16,0.621 0.242,1.149 0.242,1.586 0,0.383 -0.082,0.75 -0.242,1.11 -0.141,0.339 -0.211,0.699 -0.211,1.078 0,0.281 0.062,0.539 0.179,0.781 0.141,0.219 0.293,0.437 0.45,0.66 0.183,0.219 0.34,0.449 0.48,0.688 0.141,0.218 0.211,0.48 0.211,0.777 0.199,0.141 0.649,0.269 1.348,0.391 0.699,0.101 1.476,0.191 2.336,0.269 0.859,0.059 1.73,0.109 2.609,0.149 0.875,0.043 1.606,0.062 2.184,0.062 0.519,0 0.922,0.039 1.199,0.117 0.281,0.082 0.512,0.172 0.691,0.27 0.199,0.082 0.379,0.172 0.539,0.269 0.16,0.102 0.367,0.16 0.629,0.18 0.321,0.043 0.59,0.133 0.809,0.27 0.238,0.121 0.359,0.371 0.359,0.75 0,0.48 -0.129,0.859 -0.39,1.14 -0.239,0.278 -0.551,0.488 -0.93,0.629 -0.36,0.137 -0.746,0.227 -1.168,0.27 -0.418,0.019 -0.809,0.027 -1.168,0.027 -0.578,0 -1.156,-0.02 -1.738,-0.059 -0.578,-0.039 -1.157,-0.058 -1.739,-0.058 -0.957,0 -1.824,0.09 -2.605,0.269 -0.777,0.18 -1.457,0.477 -2.035,0.899 -0.559,0.418 -1,0.976 -1.321,1.675 -0.296,0.68 -0.449,1.54 -0.449,2.579 0,1.019 0.059,2.015 0.18,2.996 0.141,0.976 0.211,1.976 0.211,2.996 0,0.957 0.008,1.726 0.031,2.305 0.039,0.582 0.156,1.07 0.359,1.468 0.258,0.578 0.469,1.239 0.629,1.977 0.161,0.742 0.36,1.437 0.598,2.097 0.262,0.661 0.609,1.219 1.047,1.68 0.461,0.438 1.129,0.656 2.008,0.656 0.3,0 0.699,-0.039 1.199,-0.117 0.5,-0.082 1,-0.199 1.5,-0.359 0.496,-0.18 0.926,-0.402 1.285,-0.66 0.359,-0.282 0.539,-0.621 0.539,-1.02 0,-0.34 -0.097,-0.68 -0.297,-1.019 -0.199,-0.36 -0.3,-0.739 -0.3,-1.137 0,-0.281 0.058,-0.52 0.179,-0.719 0.141,-0.219 0.309,-0.41 0.508,-0.57 0.223,-0.18 0.441,-0.328 0.66,-0.449 0.242,-0.141 0.469,-0.258 0.692,-0.36 0.359,-0.457 0.789,-0.84 1.285,-1.136 0.519,-0.321 1.07,-0.481 1.648,-0.481 0.399,0 0.781,0.07 1.141,0.211 0.379,0.137 0.726,0.32 1.047,0.539 0.058,0.359 0.09,0.727 0.09,1.109 z"
         style="fill:#000000;fill-opacity:1;fill-rule:nonzero;stroke:none"
         id="path1763" />
      <path
         d="m 74.234,103.504 c 12.907,-3.711 46.442,-14.371 90.555,-11.902 1.399,0.082 1.551,2.086 0.191,2.359 -20.476,4.211 -72.105,15.109 -86.546,20.789 -2.301,0.906 -4.903,-0.086 -6.012,-2.305 -0.36,-0.726 -0.738,-1.488 -1.121,-2.242 -1.348,-2.656 0.058,-5.879 2.933,-6.699 z"
         style="fill:#60c660;fill-opacity:1;fill-rule:nonzero;stroke:#60c660;stroke-opacity:1"
         id="path1765" />
      <g
         id="g1767"
         style="fill:#60c660;fill-opacity:1;stroke:#60c660;stroke-opacity:1">
        <path
           d="m 50.191,130.945 c 20.286,-5.058 105.426,-26.394 138.391,-26.047 1.434,0.012 1.648,2.051 0.25,2.36 -25.641,5.547 -114.035,26.058 -134.301,35.984 -2.586,1.262 -5.687,-0.086 -6.593,-2.816 l -0.954,-2.852 c -1.039,-3.136 0.512,-5.961 3.207,-6.629 z"
           style="fill:#60c660;fill-opacity:1;fill-rule:nonzero;stroke:#60c660;stroke-width:1.19262;stroke-linecap:butt;stroke-linejoin:miter;stroke-miterlimit:10;stroke-dasharray:none;stroke-opacity:1"
           id="path1769" />
      </g>
      <g
         id="g1771"
         style="fill:#60c660;fill-opacity:1;stroke:#60c660;stroke-opacity:1">
        <path
           d="m 49.645,28.414 c -4.176,1.766 -3.567,-6.5 -0.68,-8.742 8.359,-6.5 28.801,-14.145 40.629,-18.867 2.433,-0.965 4.82,1.527 3.758,3.925 -6.438,14.563 -25.368,56.985 -37.149,94.516 -0.609,1.93 -4.57,2.039 -4.769,0.012 -1.075,-10.973 6.558,-41.231 22.789,-76.602 0.586,-1.265 -0.692,-2.625 -2.051,-2.316 -4.758,1.121 -12.059,3.664 -22.527,8.074 z"
           style="fill:#60c660;fill-opacity:1;fill-rule:nonzero;stroke:#60c660;stroke-width:1.19262;stroke-linecap:butt;stroke-linejoin:miter;stroke-miterlimit:10;stroke-dasharray:none;stroke-opacity:1"
           id="path1773" />
      </g>
      <g
         id="g1775"
         style="fill:#60c660;fill-opacity:1;stroke:#60c660;stroke-opacity:1">
        <path
           d="M 175.227,6.195 C 175,6.137 173.566,5.754 173.031,5.73 137.277,4.492 120.594,15.844 119.996,16.32 c -2.051,1.66 -2.375,4.664 -0.715,6.703 1.324,1.637 2.672,1.836 3.387,1.825 0.297,-0.012 0.559,0.179 0.645,0.48 1.464,5.856 1.714,14.238 -0.895,24.067 -4.52,16.957 -14.383,26.332 -19.477,26.332 -0.285,0 -0.562,-0.036 -0.812,-0.11 -2.074,-0.547 -4.195,-3.828 -5.402,-8.347 -1.801,-6.809 -1.5,-15.731 0.824,-24.485 3.16,-11.902 8.969,-20.058 13.906,-23.863 2.266,-1.742 4.078,-4.008 5.402,-6.547 0.012,-0.012 0.012,-0.035 0.024,-0.047 0.597,-1.144 3.375,-6.535 0.133,-6.609 -11.727,0 -24.524,14.324 -29.828,34.301 -5.856,22.039 -0.395,42.613 12.199,45.964 1.168,0.309 2.363,0.465 3.578,0.465 11.723,0 24.519,-14.324 29.828,-34.301 2.957,-11.117 3.016,-21.847 0.738,-30.183 -0.273,-0.992 0.274,-2.016 1.254,-2.352 3.567,-1.226 10.445,-2.48 16.457,-3.34 0.942,-0.128 1.586,0.942 1,1.696 -4.41,5.82 -8.109,13.402 -10.41,22.062 -5.855,22.039 -0.394,42.614 12.199,45.965 1.172,0.309 2.364,0.465 3.578,0.465 11.727,0 24.524,-14.324 29.829,-34.301 5.843,-22.039 0.382,-42.625 -12.211,-45.965 z m 1.824,43.2 c -4.508,16.957 -14.36,26.332 -19.453,26.332 -0.285,0 -0.559,-0.036 -0.809,-0.11 -2.078,-0.547 -4.199,-3.828 -5.402,-8.347 -1.801,-6.809 -1.504,-15.731 0.82,-24.485 4.508,-16.945 14.359,-26.332 19.465,-26.332 0.285,0 0.547,0.035 0.812,0.106 4.364,1.171 9.434,14.527 4.567,32.836 z"
           style="fill:#60c660;fill-opacity:1;fill-rule:nonzero;stroke:#60c660;stroke-width:1.19262;stroke-linecap:butt;stroke-linejoin:miter;stroke-miterlimit:10;stroke-dasharray:none;stroke-opacity:1"
           id="path1777" />
      </g>
    </g>
  </g>
</svg>
